
<?xml version="1.0" standalone="no"?>
<!DOCTYPE svg PUBLIC "-//W3C//DTD SVG 20010904//EN"
 "http://www.w3.org/TR/2001/REC-SVG-20010904/DTD/svg10.dtd">
<svg version="1.0" xmlns="http://www.w3.org/2000/svg"
 width="448.000000pt" height="556.000000pt" viewBox="0 0 448.000000 556.000000"
 preserveAspectRatio="xMidYMid meet">

<g transform="translate(0.000000,556.000000) scale(0.100000,-0.100000)"
fill="#2D2D2D
" stroke="none">
<path d="M2120 5473 c-207 -6 -634 -41 -812 -69 -415 -63 -712 -174 -877 -330
-84 -79 -143 -174 -156 -249 -4 -22 -18 -72 -31 -112 -56 -166 -19 -326 102
-446 92 -90 178 -117 379 -117 161 0 288 13 525 55 215 37 467 75 505 75 l25
0 0 -242 c2 -692 21 -2385 30 -2603 12 -310 38 -896 46 -1070 8 -147 23 -192
77 -226 26 -16 44 -19 97 -15 36 3 121 9 190 14 152 11 204 23 295 67 90 43
154 93 220 173 89 107 142 234 170 407 20 121 19 221 -5 438 -49 458 -69 776
-79 1267 -4 222 -3 360 3 368 6 9 6 16 -1 20 -6 4 -13 75 -17 167 -4 88 -15
277 -25 420 -12 161 -15 264 -9 272 5 7 5 14 -2 18 -15 9 -13 258 2 273 9 9 9
12 -1 12 -10 0 -12 30 -9 134 2 74 7 138 11 142 4 5 90 11 190 15 270 10 460
44 624 109 39 16 87 39 106 52 19 13 93 62 164 109 301 202 370 361 243 558
-110 170 -274 260 -535 295 -96 12 -244 16 -740 18 -341 2 -658 2 -705 1z
m820 -93 c0 -5 -4 -10 -9 -10 -10 0 -137 -97 -227 -174 -38 -32 -92 -74 -121
-92 -50 -33 -56 -34 -148 -34 -56 0 -94 4 -91 9 14 22 333 228 451 290 42 22
145 30 145 11z m220 3 c0 -5 -22 -20 -49 -35 -27 -15 -104 -69 -172 -121 -198
-150 -195 -148 -275 -145 l-69 3 47 28 c26 15 93 62 150 104 57 43 135 99 173
125 65 44 75 48 133 48 34 0 62 -3 62 -7z m-460 -12 c0 -5 -44 -40 -97 -77
-54 -37 -146 -104 -205 -150 l-107 -84 -117 0 -117 0 174 118 c250 170 280
186 364 193 39 3 78 6 88 7 9 1 17 -2 17 -7z m640 1 c0 -4 -8 -12 -18 -19 -10
-6 -74 -56 -143 -110 -184 -147 -193 -152 -299 -160 -92 -6 -115 3 -65 25 14
7 92 54 173 106 213 135 271 166 315 166 20 0 37 -3 37 -8z m-1350 -9 c-1 -10
-274 -198 -372 -256 -43 -25 -78 -41 -78 -35 0 7 -4 7 -12 1 -14 -10 -188 -5
-188 6 0 7 224 155 345 228 84 50 118 59 243 62 34 0 62 -2 62 -6z m199 0 c-1
-10 -304 -236 -375 -281 -51 -32 -52 -32 -135 -24 l-84 8 94 48 c109 55 237
134 336 205 60 44 76 51 117 51 27 0 48 -3 47 -7z m230 3 c-2 -2 -40 -32 -84
-66 -44 -35 -109 -89 -145 -120 -36 -31 -87 -73 -114 -93 l-49 -37 -103 0
c-65 0 -104 4 -104 10 0 6 8 14 18 17 23 9 245 148 362 227 92 63 97 65 159
65 35 1 62 -1 60 -3z m1184 -15 c4 -4 -18 -24 -48 -45 -31 -20 -102 -71 -157
-112 -138 -103 -138 -103 -259 -104 -57 -1 -108 -1 -114 -1 -5 1 19 19 54 42
35 22 98 66 140 97 42 31 108 76 146 100 l70 44 80 -7 c44 -3 83 -9 88 -14z
m-1948 0 c-3 -5 -40 -34 -83 -64 -43 -30 -124 -91 -181 -136 l-102 -82 -61 3
-60 3 116 85 c139 103 277 187 314 193 50 8 63 7 57 -2z m-235 -39 c-19 -15
-95 -75 -168 -134 -74 -60 -139 -108 -146 -109 -6 0 -44 -4 -83 -8 -77 -7 -91
-1 -45 23 15 8 100 66 189 129 157 112 179 123 253 125 l35 1 -35 -27z m2299
11 c28 -9 51 -19 51 -24 0 -4 -35 -29 -77 -56 -43 -27 -104 -71 -135 -96 l-58
-47 -101 0 -101 0 123 87 c68 47 144 101 169 120 52 38 60 39 129 16z m-2554
-49 c-152 -128 -311 -234 -349 -233 l-31 0 25 17 c13 9 90 68 170 129 122 95
151 113 180 113 l35 -1 -30 -25z m2705 -23 l34 -28 -34 -18 c-19 -10 -65 -37
-102 -62 -66 -43 -67 -44 -132 -37 -39 4 -63 11 -59 17 10 16 227 156 243 156
9 1 31 -12 50 -28z m-2864 -4 c-16 -12 -70 -54 -120 -92 -154 -120 -178 -134
-253 -154 -40 -10 -73 -15 -73 -11 0 8 101 83 273 204 63 45 134 74 182 75 17
0 16 -3 -9 -22z m2954 -88 c0 -4 -21 -23 -48 -42 -26 -20 -55 -44 -65 -55 -18
-20 -19 -20 -58 6 -23 15 -36 29 -30 35 4 4 46 28 92 52 76 40 85 43 97 28 6
-9 12 -20 12 -24z m-3230 7 c0 -2 -22 -20 -50 -40 -27 -19 -84 -66 -127 -104
-78 -68 -151 -117 -160 -108 -9 9 65 91 122 137 79 64 215 136 215 115z m3288
-88 c11 -30 11 -34 -10 -48 -13 -8 -44 -34 -69 -57 -25 -24 -49 -43 -52 -43
-3 0 -12 20 -20 44 l-15 45 66 45 c36 25 71 46 77 46 6 0 16 -15 23 -32z
m-285 -108 c35 -28 43 -77 24 -138 -8 -26 -18 -68 -22 -94 -12 -80 -52 -131
-137 -172 -205 -98 -467 -135 -964 -136 -274 0 -264 5 -240 -127 29 -160 37
-312 34 -657 -2 -310 28 -1446 52 -1976 5 -120 20 -292 34 -390 75 -527 55
-763 -75 -905 -54 -59 -72 -68 -134 -70 -27 -1 -70 -11 -95 -22 -158 -71 -200
-78 -224 -40 -16 25 -37 418 -61 1152 -15 432 -37 2163 -34 2685 1 326 3 297
-21 310 -33 18 -263 -12 -699 -90 -318 -56 -570 -56 -681 0 -49 25 -106 85
-132 139 -31 61 -33 198 -4 251 59 111 126 154 311 199 240 59 309 66 640 61
538 -7 824 -5 1195 9 547 20 805 28 1016 29 179 2 193 1 217 -18z m303 -37
c-10 -77 -49 -147 -121 -218 -68 -66 -91 -80 -80 -46 3 11 10 43 15 73 19 111
31 133 100 187 83 65 95 65 86 4z m-1306 -620 c-1 -5 -22 -18 -48 -31 -29 -14
-64 -44 -91 -77 -24 -30 -48 -52 -52 -50 -3 3 -10 35 -14 72 -4 36 -9 72 -12
80 -4 10 18 13 106 13 61 0 111 -3 111 -7z m-17 -85 c-4 -42 -11 -57 -32 -73
-14 -11 -49 -41 -77 -67 -28 -27 -54 -48 -57 -48 -4 0 -7 17 -7 38 0 34 7 44
87 119 49 45 89 82 90 83 1 0 -1 -24 -4 -52z m-13 -166 c0 -42 -5 -52 -36 -83
-19 -18 -52 -55 -72 -81 -20 -27 -40 -48 -44 -48 -4 0 -8 31 -8 69 l0 68 73
61 c39 34 75 61 80 62 4 0 7 -22 7 -48z m4 -183 c14 -137 14 -136 -73 -216
-44 -40 -82 -73 -85 -73 -3 0 -6 48 -6 106 l0 106 73 68 c39 38 75 69 78 70 3
0 9 -28 13 -61z m16 -258 c0 -56 -2 -60 -37 -86 -21 -16 -62 -53 -90 -84 l-53
-56 0 70 0 71 58 55 c57 56 100 89 114 89 5 0 8 -26 8 -59z m10 -158 c0 -47
-3 -51 -90 -141 l-90 -93 -2 40 c-1 23 -2 48 -2 56 -1 19 151 185 170 185 10
0 14 -13 14 -47z m0 -171 c0 -67 0 -68 -46 -112 -25 -25 -61 -66 -81 -92 -19
-27 -39 -48 -44 -48 -5 0 -9 33 -9 73 l1 72 80 88 c45 48 85 87 90 87 5 0 9
-31 9 -68z m0 -196 l0 -74 -53 -39 c-29 -22 -64 -57 -77 -77 -14 -20 -28 -36
-32 -36 -5 0 -8 25 -8 56 0 51 4 61 42 108 42 51 120 136 125 136 2 0 3 -33 3
-74z m0 -192 l0 -76 -61 -66 c-33 -37 -68 -79 -77 -94 -9 -16 -20 -28 -24 -28
-4 0 -8 39 -8 88 0 84 1 88 35 132 36 46 114 119 128 120 4 0 7 -34 7 -76z m0
-244 c0 -89 -3 -110 -14 -110 -8 0 -43 -34 -78 -76 l-63 -77 -3 98 -3 97 40
52 c39 50 110 126 117 126 2 0 4 -49 4 -110z m7 -199 c-3 -64 -6 -70 -45 -111
-24 -23 -57 -65 -74 -91 -17 -27 -32 -48 -33 -46 -1 1 -5 32 -8 69 l-6 67 76
95 c43 52 81 92 85 90 5 -3 7 -36 5 -73z m3 -241 l0 -120 -44 -55 c-25 -30
-57 -75 -71 -100 -15 -25 -31 -45 -36 -45 -5 0 -9 60 -9 133 l0 132 73 87 c39
49 75 88 80 88 4 0 7 -54 7 -120z m2 -222 c3 -49 1 -55 -45 -112 -27 -34 -61
-81 -76 -106 l-26 -45 -3 62 -3 61 68 96 c37 52 71 96 75 96 3 0 8 -23 10 -52z
m3 -229 c-59 -92 -137 -199 -145 -199 -6 0 -10 27 -10 60 0 60 0 60 78 157
l77 96 5 -49 c3 -27 1 -56 -5 -65z m26 -192 l11 -137 -39 -43 c-21 -23 -54
-64 -73 -92 -32 -47 -34 -48 -40 -25 -4 14 -13 75 -20 136 l-12 110 77 97 c43
54 80 96 82 94 2 -2 8 -65 14 -140z m21 -224 c4 -44 0 -53 -37 -103 -23 -30
-55 -74 -70 -98 -33 -49 -42 -43 -46 30 -2 42 2 50 67 131 38 47 72 86 75 87
4 0 9 -21 11 -47z m22 -159 c4 -36 2 -52 -12 -73 -11 -14 -41 -68 -68 -119
-27 -50 -53 -91 -59 -89 -5 2 -13 38 -17 81 l-7 77 72 88 c39 49 75 87 78 85
3 -2 9 -24 13 -50z m25 -243 c1 -48 -3 -59 -44 -113 -25 -33 -61 -87 -81 -119
-20 -32 -40 -59 -45 -59 -4 0 -5 48 -2 107 l6 108 47 60 c26 33 60 80 76 105
l28 45 7 -40 c5 -22 8 -64 8 -94z m-2 -180 c-5 -57 -9 -64 -74 -138 -37 -43
-82 -96 -100 -118 -33 -41 -40 -35 -24 22 8 27 189 293 200 293 2 0 1 -27 -2
-59z m-22 -133 c-14 -52 -60 -156 -86 -193 -54 -79 -147 -157 -205 -171 l-29
-7 28 34 c16 19 67 84 114 144 103 131 173 215 179 215 3 0 3 -10 -1 -22z"/>
</g>
</svg>
